<?xml version="1.0" ?><!DOCTYPE svg  PUBLIC '-//W3C//DTD SVG 1.1//EN'  'http://www.w3.org/Graphics/SVG/1.1/DTD/svg11.dtd'><svg enable-background="new 0 0 512 512" height="512px" id="Layer_1" version="1.1" viewBox="0 0 512 512" width="512px" xml:space="preserve" xmlns="http://www.w3.org/2000/svg" xmlns:xlink="http://www.w3.org/1999/xlink"><g><path d="M510.688,478.852c0,17.561-14.276,31.837-31.837,31.837H33.145c-17.559,0-31.836-14.276-31.836-31.837   V33.145c0-17.559,14.277-31.836,31.836-31.836h445.707c17.561,0,31.837,14.277,31.837,31.836V478.852z" fill="#4880BA"/></g><g><g><g><path d="M414.233,283.174c-11.515,0-20.865,9.347-20.865,20.866c0,11.521,9.351,20.863,20.865,20.863     c11.521,0,20.874-9.343,20.874-20.863C435.107,292.526,425.755,283.174,414.233,283.174z M131.573,185.152l-54.68,138.782h37.045     l7.314-20.065h48.203l6.754,20.065h37.418l-54.113-138.782H131.573z M131.006,275.734l14.54-48.389l14.534,48.389H131.006z      M345.306,323.935h31.396V185.152h-31.396V323.935z M271.976,216.208c-37.703,0-55.81,29.812-55.81,55.323     c0,25.502,18.106,55.317,55.81,55.317c37.7,0,55.806-29.815,55.806-55.317C327.781,246.021,309.676,216.208,271.976,216.208z      M271.976,297.778c-13.441,0-24.822-11.063-24.822-26.247c0-15.194,11.381-26.257,24.822-26.257     c13.432,0,24.821,11.062,24.821,26.257C296.797,286.715,285.407,297.778,271.976,297.778z" fill="#FFFFFF"/></g></g></g></svg>