<?xml version="1.0" ?><!DOCTYPE svg  PUBLIC '-//W3C//DTD SVG 1.1//EN'  'http://www.w3.org/Graphics/SVG/1.1/DTD/svg11.dtd'><svg enable-background="new 0 0 512 512" height="512px" id="Layer_1" version="1.1" viewBox="0 0 512 512" width="512px" xml:space="preserve" xmlns="http://www.w3.org/2000/svg" xmlns:xlink="http://www.w3.org/1999/xlink"><g><path d="M510.689,478.854c0,17.561-14.275,31.836-31.836,31.836H33.146c-17.56,0-31.836-14.275-31.836-31.836   V33.146c0-17.56,14.276-31.836,31.836-31.836h445.707c17.561,0,31.836,14.276,31.836,31.836V478.854z" fill="#522D8C"/></g><g id="Y_x21_"><path d="M356.914,88.729c-15.205,4.147-33.177,4.147-47.002,0   c-12.439,23.501-58.059,107.828-87.09,156.211c-30.413-49.766-66.355-114.738-89.856-156.211c-17.971,4.147-26.265,4.147-44.236,0   c35.942,53.914,91.238,154.829,111.975,189.39v145.15c0,0,13.823-5.529,22.118-5.529c9.677,0,22.119,5.529,22.119,5.529v-145.15   C282.266,213.146,356.914,88.729,356.914,88.729z" fill="#FFFFFF" id="Y_1_"/><path d="M356.914,379.033c-13.823,0-22.117,11.06-22.117,22.119c0,13.824,9.678,22.117,22.117,22.117   c9.677,0,22.119-6.912,22.119-22.117C379.033,388.709,369.355,379.033,356.914,379.033z" fill="#FFFFFF" id="O_2_"/><path d="M379.033,110.848c-11.059,111.975-33.178,244.685-33.178,244.685s16.589-11.059,27.648,0   c0,0,49.766-200.449,49.766-244.685C423.27,88.729,390.093,77.67,379.033,110.848z" fill="#FFFFFF" id="I_1_"/></g></svg>